<svg xmlns="http://www.w3.org/2000/svg" width="256" height="256"><path fill-opacity=".016" d="M0 128.004v128.004l128.25-.254 128.25-.254.254-127.75L257.008 0H0v128.004m.485.496c0 70.4.119 99.053.265 63.672.146-35.38.146-92.98 0-128C.604 29.153.485 58.1.485 128.5" fill="#1976D2" fill-rule="evenodd"/><path fill-opacity=".147" d="M48.189 2.039c-2.282 2.126-2.496 3.017-2.209 9.211l.173 3.75H25.531c-20.562 0-20.629.007-23.076 2.455C.085 19.824 0 20.386.008 33.705.019 54.08 1.713 62.5 8.619 76.5c6.73 13.644 19.491 26.632 33.291 33.883 7.595 3.991 22.55 8.61 27.952 8.632 4.396.019 4.422.037 10.468 7.238 5.359 6.384 13.862 13.289 20.555 16.695l4.386 2.231-.62 6.66c-1.776 19.118-12.082 42.959-25.226 58.357L75 215.38V241h-5.427c-4.673 0-5.716.367-7.5 2.635-1.14 1.449-2.073 3.638-2.073 4.865 0 1.227.933 3.416 2.073 4.865L64.145 256h127.71l2.072-2.635c2.63-3.343 2.63-6.387 0-9.73-1.784-2.268-2.827-2.635-7.5-2.635H181v-25.838l-4.917-5.762c-12.677-14.857-22.595-38.075-24.519-57.4l-.647-6.5 6.292-3.496c3.787-2.104 9.972-7.171 15.539-12.73 9.06-9.046 9.377-9.256 15.5-10.234 9.67-1.545 16.459-3.832 26.252-8.842 7.256-3.712 10.744-6.359 18-13.658 17.371-17.474 23.467-32.892 24.231-61.278l.409-15.237-2.82-2.481c-2.8-2.463-2.965-2.481-22.946-2.512L211.248 15l-.47-5.666C209.934-.837 217.35 0 128.078 0 51.265 0 50.352.023 48.189 2.039M.402 35c0 8.525.154 12.013.341 7.75.188-4.263.188-11.237 0-15.5C.556 22.987.402 26.475.402 35m14.615 3.725c.034 16.854 4.97 31.154 14.852 43.024 8.068 9.691 20.902 17.897 32.575 20.826l2.525.634-2.849-6.354C54.761 80.445 48.306 54.015 46.769 34l-.269-3.5-15.75-.275L15 29.949l.017 8.776m194.494-3.975c-3.672 28.519-7.473 43.388-16.983 66.443-.626 1.517-.3 1.583 3.137.637 8.803-2.424 19.559-9.122 27.336-17.023 11.111-11.287 16.846-25.353 17.74-43.508L241.297 30h-31.174l-.612 4.75" fill="#1976D2" fill-rule="evenodd"/><path fill-opacity=".103" d="M128 16.892v16.891l-2.497.627c-1.855.465-3.426 2.484-6.117 7.858-1.991 3.978-3.708 7.335-3.815 7.46-.106.125-3.718.752-8.025 1.393C98.626 52.447 96 54.29 96 59.221c0 2.576 1.137 4.37 5.679 8.96l5.679 5.739-1.255 8.2c-1.17 7.642-1.124 8.375.67 10.79 2.967 3.993 7.117 3.883 14.763-.393L128 88.902V214h-25.893c-22.689 0-25.968.196-26.5 1.582-.334.87-.607 6.945-.607 13.5V241h-4.889c-6.503 0-9.511 2.372-9.511 7.5 0 2.72.638 4.275 2.311 5.629 2.203 1.784 5.245 1.871 65.245 1.871h62.935l2.454-2.455c3.129-3.128 3.129-6.962 0-10.09-1.957-1.958-3.476-2.455-7.5-2.455H181v-12.599c0-12.386-.046-12.647-2.75-15.449-4.523-4.688-6.25-6.894-6.25-7.983 0-.568-.675-1.291-1.5-1.607-.825-.317-1.5-1.203-1.5-1.969s-.477-1.393-1.059-1.393-.823-.382-.535-.849c.289-.466-.377-1.816-1.48-3-1.102-1.183-1.649-2.158-1.215-2.166.434-.009.339-.346-.211-.75-1.211-.89-4.933-8.433-4.68-9.485.099-.413-.345-.75-.987-.75-.641 0-.882-.284-.535-.631.347-.348.101-1.585-.548-2.75-.648-1.166-1.251-2.457-1.34-2.869-.088-.412-.273-.975-.41-1.25-.137-.275-.363-.95-.5-1.5s-.363-1.225-.5-1.5c-.137-.275-.306-.912-.375-1.417-.069-.504-.431-1.223-.806-1.597-.375-.375-.457-1.267-.182-1.983.275-.715.038-1.586-.525-1.934-.564-.348-.789-1.248-.5-2 .288-.752.025-1.675-.585-2.052-.609-.377-.836-1.543-.503-2.592.333-1.049.263-2.461-.155-3.138-1.12-1.811-1.182-10.089-.087-11.526.52-.681 1.344-.992 1.831-.691.488.301.887.045.887-.57s.45-.84 1-.5c.55.34 1 .141 1-.441s.675-1.059 1.5-1.059 1.5-.477 1.5-1.059.453-.779 1.007-.437c.554.343 1.277-.081 1.607-.941.33-.859 1.031-1.563 1.557-1.563.916 0 5.041-3.488 8.633-7.301.933-.99 2.934-3.083 4.446-4.651 1.513-1.568 2.75-3.237 2.75-3.709 0-1.663 4.048-3.365 6.525-2.743 1.376.345 3.113.119 3.861-.502.748-.62 2.047-.865 2.886-.543.839.322 1.827.097 2.196-.499.369-.597 1.109-.814 1.645-.482.536.331 1.63.058 2.431-.606.801-.665 1.456-.874 1.456-.464s.675.185 1.5-.5 1.5-.91 1.5-.5c0 .41.604.244 1.342-.369.738-.612 1.638-.818 2-.456.362.362.658.133.658-.508 0-.642.347-1.054.77-.917 1.235.401 9.23-3.463 9.23-4.461 0-.499.45-.629 1-.289s1 .141 1-.441.627-1.059 1.393-1.059 1.652-.675 1.969-1.5c.316-.825 1.104-1.5 1.751-1.5 1.188 0 2.702-1.262 8.663-7.224 5.857-5.857 7.224-7.469 7.224-8.524 0-.571.704-1.308 1.563-1.638.86-.33 1.284-1.053.941-1.607-.342-.554-.145-1.007.437-1.007S244 82.325 244 81.5s.477-1.5 1.059-1.5.781-.45.441-1-.172-1 .374-1c.994 0 2.696-3.843 2.324-5.25-.109-.412.327-.75.969-.75.641 0 .87-.296.508-.658-.362-.362-.156-1.262.456-2 .613-.738.779-1.342.369-1.342-.41 0-.185-.675.5-1.5s.91-1.5.5-1.5c-.41 0-.185-.675.5-1.5s.91-1.5.5-1.5c-.41 0-.201-.655.464-1.456.664-.801.906-1.946.536-2.544-.37-.598-.223-1.63.326-2.294.548-.663 1.053-2.331 1.121-3.706 1.517-30.593 1.216-33.432-3.802-35.799C249.44 15.396 242.242 15 229.32 15h-19.282l-.632-2.518c-.348-1.386-.406-3.703-.129-5.15.371-1.942-.162-3.247-2.033-4.982L204.708 0H128v16.892m80.192 17.858c-.097 7.798-.247 9.675-.899 11.25-.64 1.547-1.207 5.841-1.281 9.7-.024 1.211-.504 2.486-1.068 2.835-.564.348-.764 1.458-.444 2.465s.133 2.109-.416 2.448c-.548.339-.761 1.231-.472 1.983.288.752.063 1.652-.5 2-.564.348-.789 1.248-.5 2 .288.752.036 1.668-.56 2.037-.597.369-.814 1.109-.482 1.645.331.536.058 1.63-.606 2.431-.665.801-.874 1.456-.464 1.456s.185.675-.5 1.5-.91 1.5-.5 1.5c.41 0 .185.675-.5 1.5s-.91 1.5-.5 1.5c.41 0 .185.675-.5 1.5s-.91 1.5-.5 1.5c.41 0 .185.675-.5 1.5s-.913 1.5-.507 1.5c.405 0 0 1.125-.901 2.5s-1.391 2.5-1.089 2.5c.301 0-.226 1.463-1.173 3.25-.946 1.787-1.814 3.781-1.927 4.431-.284 1.631 2.771 2.655 3.655 1.225.395-.639 1.18-.877 1.745-.528.564.349 1.184.162 1.376-.416.193-.578 1.356-1.127 2.586-1.219 1.229-.093 2.235-.549 2.235-1.015 0-.465.45-.568 1-.228.55.34 1 .115 1-.5s.45-.84 1-.5c.55.34 1 .115 1-.5s.45-.84 1-.5c.55.34 1 .218 1-.272s1.238-1.529 2.75-2.309c3.126-1.613 3.146-1.629 10.475-8.477 2.977-2.781 5.706-5.819 6.063-6.75.357-.93 1.113-1.692 1.681-1.692.567 0 1.031-.675 1.031-1.5s.45-1.5 1-1.5.909-.338.798-.75c-.111-.412.881-2.775 2.205-5.25 1.323-2.475 2.483-4.838 2.577-5.25.093-.413.283-.975.42-1.25s.306-.913.375-1.417.431-1.223.806-1.597c.375-.375.457-1.267.182-1.983-.275-.715-.038-1.586.525-1.934.564-.348.769-1.299.456-2.114-.312-.814-.156-2.037.347-2.718.502-.68.734-5.625.515-10.987l-.399-9.75h-32.555l-.06 4.75" fill="#1976D2" fill-rule="evenodd"/><path fill-opacity=".594" d="M76 228v13h-4.865C64.73 241 61 243.761 61 248.5c0 2.433.724 3.924 2.635 5.427 2.601 2.047 3.423 2.073 64.811 2.073 61.191 0 62.212-.032 64.365-2.039 2.942-2.741 2.942-8.181 0-10.922-1.633-1.521-3.537-2.039-7.5-2.039H180v-26H76v13" fill="#1976D2" fill-rule="evenodd"/></svg>